# xmcd CD database file
#
# Track frame offsets:
#	150
#	13710
#	29361
#	41934
#	52136
#	63841
#	77438
#	90500
#	106309
#	119947
#	132367
#	144836
#	157420
#	171781
#	183008
#	194991
#	206155
#	219006
#	236639
#	250505
#	264388
#	280987
#	293127
#
# Disc length: 4095 seconds
#
# Revision: 1
# Processed by: cddbd v1.5.2PL0 Copyright (c) Steve Scherf et al.
# Submitted via: CDex 1.51
#
DISCID=580ffd17
DTITLE=Israel and Rodolfo - Bem Apaixonado
DYEAR=2014
DGENRE=Country
TTITLE0=Bem Apaixonados
TTITLE1=Nada sem Você
TTITLE2=Cê Sabe o que eu Acho?
TTITLE3=Com uma folha ao vento
TTITLE4=Zero a Esquerda
TTITLE5=Me Conta o Resto
TTITLE6=Diz Que Ainda Somos Nós
TTITLE7=Conto de Fada Part. Leonardo
TTITLE8=Quem Vai Chorar Não Sou Eu
TTITLE9=Do Jeito Que Eu Queria
TTITLE10=Não Me Aceito Sem Você
TTITLE11=Vacilou Perdeu
TTITLE12=Marca Evidente
TTITLE13=Tepera Caida
TTITLE14=Não Faz Mal
TTITLE15=Esqueci de Avisar
TTITLE16=Amor Que É Bom Ninguém quer Dar
TTITLE17=Imprevisível
TTITLE18=Coração
TTITLE19=Areia Movediça Part. João Bosco e Vinicius
TTITLE20=Hipnose
TTITLE21=Pagar Motel pros Homens
TTITLE22=Vê Se Me Esquece
EXTD=YEAR: 2014
EXTT0=
EXTT1=
EXTT2=
EXTT3=
EXTT4=
EXTT5=
EXTT6=
EXTT7=
EXTT8=
EXTT9=
EXTT10=
EXTT11=
EXTT12=
EXTT13=
EXTT14=
EXTT15=
EXTT16=
EXTT17=
EXTT18=
EXTT19=
EXTT20=
EXTT21=
EXTT22=
PLAYORDER=
